# xmcd
#
# Track frame offsets: 
#        150
#        22787
#        43912
#
# Disc length: 885 seconds
#
# Revision: 1
# Processed by: cddbd v1.5.2PL0 Copyright (c) Steve Scherf et al.
# Submitted via: ExactAudioCopy v1.3
#
DISCID=1a037303
DTITLE=雨が叫んでる - 田原俊彦
DYEAR=1992
DGENRE=Vocal
TTITLE0=雨が叫んでる
TTITLE1=夕やけに帰ろう
TTITLE2=雨が叫んでる（オリジナル・カラオケ）
EXTD=
EXTT0=
EXTT1=
EXTT2=
PLAYORDER=
